<svg width="27" height="27" viewBox="0 0 27 27" fill="none" xmlns="http://www.w3.org/2000/svg">
<path d="M13.5 2.25001C11.275 2.25001 9.09992 2.90981 7.24987 4.14597C5.39982 5.38214 3.95788 7.13915 3.10639 9.19482C2.2549 11.2505 2.03212 13.5125 2.4662 15.6948C2.90028 17.8771 3.97174 19.8816 5.54508 21.455C7.11842 23.0283 9.12298 24.0998 11.3053 24.5338C13.4876 24.9679 15.7496 24.7451 17.8052 23.8937C19.8609 23.0422 21.6179 21.6002 22.8541 19.7502C24.0902 17.9001 24.75 15.725 24.75 13.5C24.75 12.0226 24.459 10.5597 23.8937 9.19482C23.3283 7.82991 22.4996 6.58972 21.455 5.54506C20.4103 4.5004 19.1701 3.67173 17.8052 3.10636C16.4403 2.541 14.9774 2.25001 13.5 2.25001ZM13.5 22.5C11.72 22.5 9.97995 21.9722 8.4999 20.9832C7.01986 19.9943 5.86631 18.5887 5.18512 16.9442C4.50393 15.2996 4.3257 13.49 4.67297 11.7442C5.02024 9.99837 5.8774 8.39472 7.13607 7.13605C8.39475 5.87737 9.99839 5.02021 11.7442 4.67294C13.4901 4.32567 15.2997 4.5039 16.9442 5.18509C18.5887 5.86628 19.9943 7.01983 20.9833 8.49988C21.9722 9.97992 22.5 11.72 22.5 13.5C22.5 15.887 21.5518 18.1761 19.864 19.864C18.1762 21.5518 15.887 22.5 13.5 22.5Z" fill="#646E77"/>
<path d="M17.64 9.36001C17.486 9.19404 17.2855 9.07841 17.0647 9.02824C16.8439 8.97806 16.6131 8.99567 16.4025 9.07876L11.6663 10.9913C11.527 11.0478 11.4005 11.1317 11.2943 11.238C11.188 11.3443 11.1041 11.4708 11.0475 11.61L9.07877 16.4025C9.00893 16.591 8.99088 16.7948 9.02649 16.9926C9.0621 17.1905 9.15008 17.3752 9.28127 17.5275H9.33752C9.42817 17.6572 9.54516 17.7664 9.68086 17.8478C9.81656 17.9292 9.96791 17.9811 10.125 18C10.2713 18.0018 10.4165 17.9751 10.5525 17.9213L15.2888 16.0088C15.428 15.9522 15.5545 15.8683 15.6608 15.762C15.767 15.6557 15.8509 15.5292 15.9075 15.39L17.8763 10.5975C17.9649 10.3912 17.9897 10.1631 17.9476 9.94259C17.9055 9.72205 17.7984 9.51916 17.64 9.36001ZM12.15 14.8613L12.9488 12.9038L14.85 12.1388L14.0513 14.0963L12.15 14.8613Z" fill="#646E77"/>
</svg>
