<svg width="17" height="16" viewBox="0 0 17 16" fill="none" xmlns="http://www.w3.org/2000/svg">
<path d="M8.75023 3.72259L8.32702 3.10495C8.06031 2.71571 7.76165 2.38794 7.43757 2.12345L7.43755 2.12343C6.80125 1.60406 6.09242 1.34857 5.31779 1.34857C4.26776 1.34857 3.3025 1.78981 2.59255 2.60245L8.75023 3.72259ZM8.75023 3.72259L9.17347 3.10498M8.75023 3.72259L9.17347 3.10498M9.17347 3.10498C9.4403 2.71561 9.73884 2.38795 10.0628 2.12345C10.6992 1.60405 11.4081 1.34857 12.1827 1.34857C13.2328 1.34857 14.1979 1.78982 14.9079 2.60249C15.6124 3.40909 16.0153 4.52933 16.0153 5.7694C16.0153 7.01889 15.5803 8.18142 14.5821 9.4525L14.582 9.45253C13.6738 10.6093 12.3586 11.7943 10.7805 13.2135L10.7805 13.2136L10.7664 13.2262C10.2347 13.7045 9.63052 14.248 9.00342 14.8268L9.00316 14.827C8.92946 14.8951 8.83936 14.929 8.75025 14.929C8.66117 14.929 8.57117 14.8952 8.49715 14.8268L8.49681 14.8265C7.86501 14.2435 7.25683 13.6964 6.72241 13.2157L6.72039 13.2139L6.72037 13.2139M9.17347 3.10498L6.72037 13.2139M6.72037 13.2139C5.14207 11.7944 3.82687 10.6093 2.91858 9.45265C1.92035 8.18139 1.48522 7.01886 1.48522 5.76953C1.48522 4.52934 1.88805 3.40909 2.59251 2.60249L6.72037 13.2139Z" stroke="#EA5356" stroke-width="1.02611"/>
</svg>
