<svg width="17" height="17" viewBox="0 0 17 17" fill="none" xmlns="http://www.w3.org/2000/svg">
<path fill-rule="evenodd" clip-rule="evenodd" d="M16.15 0C15.6058 0 15.0838 0.216201 14.699 0.601041L12.2403 3.0597C12.0292 3.27082 11.7228 3.35569 11.4331 3.28328L1.7 0.85L0.8339 1.7161C0.501954 2.04805 0.501954 2.58624 0.8339 2.91818C0.898501 2.98278 0.973094 3.03655 1.05481 3.0774L8.5 6.8L5.1 10.2H1.37533C1.05337 10.2 0.759049 10.3819 0.615066 10.6699L0 11.9L3.4 13.6L5.1 17L6.33013 16.3849C6.6181 16.241 6.8 15.9466 6.8 15.6247V11.9L10.2 8.5L13.9226 15.9452C14.1325 16.3651 14.6431 16.5353 15.063 16.3253C15.1447 16.2845 15.2193 16.2307 15.2839 16.1661L16.15 15.3L13.7167 5.56689C13.6443 5.27723 13.7292 4.97082 13.9403 4.7597L16.399 2.30104C16.7838 1.9162 17 1.39425 17 0.85C17 0.380558 16.6194 0 16.15 0Z" fill="#69C0BD"/>
</svg>
