<svg width="32" height="22" viewBox="0 0 32 22" fill="none" xmlns="http://www.w3.org/2000/svg">
<path d="M7.85061 15.025C9.93997 15.025 11.6337 16.5864 11.6337 18.5126C11.6337 20.4387 9.93997 22 7.85061 22C5.76125 22 4.06749 20.4386 4.06749 18.5126C4.06992 16.5874 5.76224 15.0273 7.85036 15.025H7.85061ZM7.85061 20.0334C8.76176 20.0334 9.50038 19.3525 9.50038 18.5125C9.50038 17.6726 8.76176 16.9917 7.85061 16.9917C6.93946 16.9917 6.20084 17.6726 6.20084 18.5125C6.20164 19.3521 6.93981 20.0326 7.85055 20.0333H7.85064L7.85061 20.0334ZM24.1493 15.025C26.2387 15.025 27.9324 16.5864 27.9324 18.5126C27.9324 20.4387 26.2387 22 24.1493 22C22.0599 22 20.3661 20.4386 20.3661 18.5125C20.3686 16.5873 22.0609 15.0272 24.1491 15.025H24.1493L24.1493 15.025ZM24.1493 20.0334C25.0604 20.0334 25.7991 19.3525 25.7991 18.5125C25.7991 17.6726 25.0604 16.9917 24.1493 16.9917C23.2381 16.9917 22.4995 17.6726 22.4995 18.5125C22.5003 19.3521 23.2385 20.0326 24.1492 20.0333H24.1493L24.1493 20.0334ZM32 19.4958H26.8657V17.5292H29.8666V3.48749C29.8658 2.64781 29.1276 1.96738 28.2169 1.96661H3.78306C2.8719 1.96661 2.13328 2.64751 2.13328 3.48746V17.5292H5.13415V19.4958H0V3.48749C0 1.5614 1.69379 0 3.78318 0H28.2168C30.3052 0.00223806 31.9975 1.56232 31.9999 3.48726V3.48749L32 19.4958ZM21.4329 19.4958H10.5671V17.5292H21.4329V19.4958ZM25.216 8.49584H23.0826V2.24192H25.216V8.49584ZM26.8458 13.2944C24.7668 13.2915 23.0826 11.7371 23.0826 9.82007V9.49231H1.06656V7.52573H25.216V9.82013C25.216 10.6528 25.9482 11.3279 26.8515 11.3279H30.9333V13.2945H26.8458V13.2944ZM19.7831 8.49584H17.6497V2.24192H19.7831V8.49584ZM8.91727 8.49584H6.78399V2.24192H8.91733L8.91727 8.49584ZM14.3502 8.49584H12.2168V2.24192H14.3502L14.3502 8.49584Z" fill="#68C0BC"/>
</svg>
